<svg xmlns="http://www.w3.org/2000/svg" xmlns:svg="http://www.w3.org/2000/svg" xmlns:xlink="http://www.w3.org/1999/xlink" id="svg2" width="700" height="700" version="1.0"><defs id="defs4"><linearGradient id="linearGradient3157"><stop id="stop3159" offset="0" style="stop-color:#0000c8;stop-opacity:.7241379"/><stop id="stop3161" offset="1" style="stop-color:#000;stop-opacity:0"/></linearGradient><linearGradient id="linearGradient3163" x1="194.476" x2="194.476" y1="395.802" y2="137.532" gradientUnits="userSpaceOnUse" xlink:href="#linearGradient3157"/></defs><g id="layer1" transform="translate(0,-100)"><path id="path3203" d="M 320,266.64789 A 128.57143,128.57143 0 1 1 62.857147,266.64789 A 128.57143,128.57143 0 1 1 320,266.64789 z" transform="matrix(2.3242944,0,0,2.3242944,-84.936368,-167.406)" style="fill:#fdffff;fill-opacity:1;stroke:none;stroke-width:1;stroke-miterlimit:4;stroke-dasharray:none;stroke-opacity:1"/><path id="path2383" d="M 320,266.64789 A 128.57143,128.57143 0 1 1 62.857147,266.64789 A 128.57143,128.57143 0 1 1 320,266.64789 z" transform="matrix(2.3242944,0,0,2.3242944,-84.936368,-167.406)" style="fill:url(#linearGradient3163);fill-opacity:1;stroke:#646464;stroke-width:.8604762;stroke-miterlimit:4;stroke-dasharray:none;stroke-opacity:1"/><path id="path2385" d="M 591.00926,446.92273 A 234.64699,246.56757 0 1 1 121.71529,446.92273 A 234.64699,246.56757 0 1 1 591.00926,446.92273 z" transform="matrix(0.8505761,0,0,0.8094541,56.886767,90.598739)" style="fill:#fffffd;fill-opacity:1;stroke:#323232;stroke-width:2.41033435;stroke-miterlimit:4;stroke-dasharray:none;stroke-opacity:1"/><path id="path3165" d="M 354.1467,486.61532 L 295.17974,363.96404 L 371.44367,474.82193 L 354.1467,486.61532 z" style="fill:#323264;fill-opacity:1;fill-rule:evenodd;stroke:#000;stroke-width:.77705353px;stroke-linecap:butt;stroke-linejoin:miter;stroke-opacity:1"/><path id="path3169" d="M 347.29575,466.94995 L 490.79531,343.62185 L 369.35847,485.93567 L 347.29575,466.94995 z" style="fill:#323264;fill-opacity:1;fill-rule:evenodd;stroke:#000;stroke-width:1.08038521px;stroke-linecap:butt;stroke-linejoin:miter;stroke-opacity:1"/><path id="path3167" d="M 329.84823,498.90518 A 17.200674,18.212479 0 1 1 295.44688,498.90518 A 17.200674,18.212479 0 1 1 329.84823,498.90518 z" transform="matrix(1.1308005,0,0,1.0679782,6.4579924,-58.457676)" style="fill:#818181;fill-opacity:1;stroke:#000;stroke-width:1;stroke-miterlimit:4;stroke-dasharray:none;stroke-opacity:1"/></g></svg>